<svg version="1.1" xmlns="http://www.w3.org/2000/svg" width="24" height="24" viewBox="0 0 24 24">
	<path style="fill: none; stroke: rgb(255, 255, 255); stroke-width: 2; stroke-linecap: round; stroke-linejoin: round; stroke-miterlimit: 10;" d="M17.44 18.537c.09-.055.184-.104.28-.147A36.35 36.35 0 0 1 32 15c5 0 11.21 2.13 14.55 3.43"/>
	<path style="fill: none; stroke: rgb(255, 255, 255);" d="M34.67 54c-3.836.268-7.69-.05-11.43-.94a1 1 0 1 0-.47 1.94A39.54 39.54 0 0 0 32 56.12c.94 0 1.88 0 2.81-.1a1.003 1.003 0 0 0-.14-2V54zm6.1-.91c-.84.2-1.69.38-2.53.52a1.004 1.004 0 0 0 .16 2h.17c.89-.15 1.78-.33 2.67-.54a1.003 1.003 0 0 0-.47-1.95v-.03zM32 18.42a1 1 0 0 0-1 1v1.76a1 1 0 0 0 2 0v-1.76a1 1 0 0 0-1-1zm4.75 4.19h.24a1 1 0 0 0 1-.77l.42-1.72a1 1 0 0 0-1.94-.47L36 21.4a1 1 0 0 0 .737 1.207l.013.003zm4.56 1.28a1 1 0 0 0 1.34-.44l.81-1.61a1 1 0 1 0-1.78-.9l-.81 1.61a1 1 0 0 0 .44 1.34zM26 21.87a1 1 0 0 0 1 .77h.24a.998.998 0 0 0 .773-1.184c-.003-.02-.008-.037-.013-.056l-.42-1.72a1 1 0 0 0-1.94.47l.36 1.72zm-4.65 1.58a1 1 0 1 0 1.78-.9l-.81-1.61a1 1 0 1 0-1.78.9l.81 1.61z"/>
	<path style="fill: none; stroke: rgb(255, 255, 255); stroke-width: 2; stroke-linecap: round; stroke-linejoin: round; stroke-miterlimit: 10;" d="M62.34 45.27C59.834 22.07 52 10 48 7c-1 1-8.92 8.72-8.92 8.72a35.17 35.17 0 0 0-14.16 0S18 9 16 7C12 10 4.174 21.972 1.66 45.24a4 4 0 0 0 1.41 3.47 42.914 42.914 0 0 0 12.83 7.44 2 2 0 0 0 2.51-1L21 49.7a46.934 46.934 0 0 0 22 0l2.59 5.48a2 2 0 0 0 2.51 1 42.91 42.91 0 0 0 12.83-7.41 4.002 4.002 0 0 0 1.41-3.5z"/>
	<path style="fill: none; stroke: rgb(255, 255, 255); stroke-width: 2; stroke-linecap: round; stroke-linejoin: round; stroke-miterlimit: 10;" d="M25 43.325a3.85 3.85 0 0 0 3.85 3.85c1.303 0 2.453-.65 3.15-1.64a3.845 3.845 0 0 0 3.15 1.64 3.85 3.85 0 0 0 3.85-3.85"/>
	<path style="fill: none; stroke: rgb(255, 255, 255); stroke-width: 2; stroke-linecap: round; stroke-linejoin: round; stroke-miterlimit: 10;" d="M54 43v1a2 2 0 0 1-2 2h0a2 2 0 0 1-2-2v-1"/>
	<path style="fill: none; stroke: rgb(255, 255, 255); stroke-width: 2; stroke-linecap: round; stroke-linejoin: round; stroke-miterlimit: 10;" d="M15 26v1a2 2 0 0 1-2 2h0a2 2 0 0 1-2-2v-1"/>
	<path style="fill: none; stroke: rgb(255, 255, 255); stroke-width: 2; stroke-linecap: round; stroke-linejoin: round; stroke-miterlimit: 10;" d="M17.012 33.726c-.004.09-.012.182-.012.274 0 3.307 2.24 6 5 6s5-2.684 5-6a6.922 6.922 0 0 0-.64-2.933c-2.378.904-5.996 2.124-9.348 2.66z"/>
	<path style="fill: none; stroke: rgb(255, 255, 255); stroke-width: 2; stroke-linecap: round; stroke-linejoin: round; stroke-miterlimit: 10;" d="M37.693 30.966A6.883 6.883 0 0 0 37 34c0 3.307 2.24 6 5 6s5-2.684 5-6c0-.11-.01-.217-.014-.325-3.385-.58-6.998-1.827-9.293-2.71z"/>
</svg>