<svg xmlns="http://www.w3.org/2000/svg" fill="#FFFFFF" viewBox="0 0 24 24" width="24px" height="24px"><path d="M 15.984375 6 A 1.0001 1.0001 0 0 0 15.400391 6.1992188 C 13.140017 7.8944987 10.17499 11.732678 7.3574219 18.115234 C 4.5398534 24.497791 1.9329524 33.406845 0.66601562 45.132812 A 1.0001 1.0001 0 0 0 0.66601562 45.138672 C 0.49874019 46.785211 1.1584324 48.410621 2.4257812 49.474609 C 2.4257812 49.474609 2.4277344 49.474609 2.4277344 49.474609 C 2.4277344 49.474609 2.4277344 49.476562 2.4277344 49.476562 C 6.3259515 52.75466 10.766054 55.327413 15.546875 57.083984 C 16.992043 57.631668 18.638255 56.976269 19.310547 55.583984 A 1.0001 1.0001 0 0 0 19.3125 55.580078 L 21.576172 50.816406 C 28.444509 52.347556 35.553483 52.349133 42.421875 50.818359 L 44.685547 55.607422 A 1.0001 1.0001 0 0 0 44.689453 55.615234 C 45.361442 57.006893 47.006473 57.66159 48.451172 57.115234 C 53.2311 55.368466 57.670721 52.804589 61.572266 49.537109 C 62.852453 48.465499 63.513836 46.821993 63.333984 45.162109 C 62.070987 33.470273 59.462739 24.5563 56.644531 18.158203 C 53.826324 11.760107 50.863951 7.8974748 48.599609 6.1992188 A 1.0001 1.0001 0 0 0 47.292969 6.2929688 C 46.375278 7.2106594 39.257067 14.149196 38.710938 14.681641 C 37.266406 14.408658 35.809557 14.233947 34.349609 14.138672 C 33.554735 14.056268 32.766224 14 32 14 A 1.0001 1.0001 0 0 0 31.970703 14 C 31.418993 14.016414 30.869659 14.051017 30.320312 14.091797 C 30.316424 14.092086 30.312482 14.091507 30.308594 14.091797 C 30.199857 14.099903 30.091047 14.106178 29.982422 14.115234 C 28.411161 14.203237 26.843133 14.387958 25.289062 14.681641 C 24.813032 14.219258 18.610722 8.1966593 16.707031 6.2929688 A 1.0001 1.0001 0 0 0 15.984375 6 z M 16.035156 8.4335938 C 18.217074 10.591332 21.919646 14.191914 23.109375 15.349609 C 21.121352 15.900798 19.175676 16.6083 17.296875 17.484375 C 17.167177 17.543175 17.041483 17.609306 16.919922 17.683594 A 1.0002174 1.0002174 0 1 0 17.962891 19.390625 C 18.016841 19.357655 18.071671 19.328374 18.128906 19.302734 A 1.0001 1.0001 0 0 0 18.142578 19.296875 C 22.495814 17.266984 27.216705 16.146408 32.017578 16.001953 C 36.731459 16.006853 42.897746 18.080885 46.1875 19.361328 A 1.0001 1.0001 0 1 0 46.912109 17.498047 C 45.357124 16.892831 43.188757 16.10974 40.798828 15.435547 C 42.025232 14.239283 46.291381 10.080588 47.962891 8.4335938 C 49.730939 9.9930329 52.319095 13.29775 54.814453 18.962891 C 57.539746 25.150044 60.102664 33.869661 61.345703 45.376953 C 61.453851 46.37507 61.058876 47.359517 60.289062 48.003906 A 1.0001 1.0001 0 0 0 60.287109 48.003906 C 56.560894 51.124551 52.32275 53.573065 47.757812 55.240234 A 1.0001 1.0001 0 0 0 47.744141 55.246094 C 47.252713 55.432725 46.722306 55.221234 46.492188 54.748047 C 46.492188 54.748047 46.490234 54.746094 46.490234 54.746094 L 43.904297 49.273438 A 1.0001 1.0001 0 0 0 42.765625 48.728516 C 35.689617 50.434391 28.310383 50.434391 21.234375 48.728516 A 1.0001 1.0001 0 0 0 20.097656 49.271484 L 17.507812 54.716797 C 17.277694 55.189985 16.747287 55.401475 16.255859 55.214844 A 1.0001 1.0001 0 0 0 16.244141 55.210938 C 11.677046 53.533893 7.435934 51.076498 3.7128906 47.945312 A 1.0001 1.0001 0 0 0 3.7128906 47.943359 C 2.9511752 47.304645 2.5558522 46.336123 2.6542969 45.347656 L 2.6542969 45.34375 C 2.6542969 45.34375 2.6542969 45.341797 2.6542969 45.341797 C 3.9016043 33.802843 6.4640493 25.093182 9.1875 18.923828 C 11.680858 13.275697 14.264802 9.9921989 16.035156 8.4335938 z M 32 18.419922 C 31.448 18.419922 31 18.867922 31 19.419922 L 31 21.179688 C 31 21.731687 31.448 22.179688 32 22.179688 C 32.552 22.179688 33 21.731688 33 21.179688 L 33 19.419922 C 33 18.867922 32.552 18.419922 32 18.419922 z M 37.599609 18.960938 C 37.103609 18.872937 36.619703 19.168391 36.470703 19.650391 L 36 21.400391 C 35.87 21.937391 36.199328 22.477422 36.736328 22.607422 C 36.740328 22.608422 36.746 22.608375 36.75 22.609375 L 36.990234 22.609375 C 37.464234 22.622375 37.881234 22.300844 37.990234 21.839844 L 38.410156 20.119141 C 38.506156 19.575141 38.143609 19.056938 37.599609 18.960938 z M 26.724609 18.980469 C 26.595312 18.967484 26.460125 18.978781 26.328125 19.019531 C 25.846125 19.168531 25.552625 19.653391 25.640625 20.150391 L 26 21.869141 C 26.109 22.330141 26.526 22.653625 27 22.640625 L 27.240234 22.640625 C 27.781234 22.527625 28.127672 21.996078 28.013672 21.455078 C 28.010672 21.436078 28.005 21.419391 28 21.400391 L 27.580078 19.679688 C 27.457828 19.283687 27.1125 19.019422 26.724609 18.980469 z M 21.402344 20.324219 C 21.272375 20.323469 21.141172 20.347391 21.013672 20.400391 C 20.503672 20.612391 20.262609 21.198984 20.474609 21.708984 C 20.493609 21.753984 20.514063 21.797844 20.539062 21.839844 L 21.349609 23.449219 C 21.561609 23.959219 22.148203 24.200281 22.658203 23.988281 C 23.168203 23.776281 23.409266 23.191641 23.197266 22.681641 C 23.178266 22.636641 23.155859 22.592781 23.130859 22.550781 L 22.320312 20.939453 C 22.161313 20.556953 21.79225 20.326469 21.402344 20.324219 z M 42.744141 20.333984 C 42.358312 20.278953 41.959094 20.453844 41.746094 20.808594 C 41.721094 20.850594 41.700641 20.894453 41.681641 20.939453 L 40.871094 22.550781 C 40.623094 23.042781 40.820547 23.640625 41.310547 23.890625 C 41.802547 24.137625 42.400391 23.939219 42.650391 23.449219 L 43.460938 21.839844 C 43.745937 21.366844 43.592141 20.75275 43.119141 20.46875 C 43.000891 20.3975 42.87275 20.352328 42.744141 20.333984 z M 10.984375 24.986328 A 1.0001 1.0001 0 0 0 10 26 L 10 27 C 10 28.64497 11.35503 30 13 30 C 14.64497 30 16 28.64497 16 27 L 16 26 A 1.0001 1.0001 0 1 0 14 26 L 14 27 C 14 27.56503 13.56503 28 13 28 C 12.43497 28 12 27.56503 12 27 L 12 26 A 1.0001 1.0001 0 0 0 10.984375 24.986328 z M 37.660156 29.966797 A 1.0001 1.0001 0 0 0 36.794922 30.525391 C 36.289712 31.554265 36 32.739432 36 34 C 36 37.758366 38.588753 41 42 41 C 45.409074 41 48 37.766141 48 34 C 48 33.835455 47.988225 33.712009 47.984375 33.628906 A 1.0001 1.0001 0 0 0 47.154297 32.689453 C 43.887306 32.128708 40.312109 30.902262 38.050781 30.033203 A 1.0001 1.0001 0 0 0 37.660156 29.966797 z M 26.392578 30.066406 A 1.0001 1.0001 0 0 0 26.292969 30.068359 A 1.0001 1.0001 0 0 0 26.003906 30.132812 C 23.661484 31.023287 20.082454 32.222923 16.853516 32.738281 A 1.0001 1.0001 0 0 0 16.013672 33.681641 C 16.010956 33.743424 16 33.850029 16 34 C 16 37.758366 18.588753 41 22 41 C 25.409074 41 28 37.766141 28 34 C 28 32.787659 27.733908 31.643736 27.265625 30.642578 A 1.0001 1.0001 0 0 0 26.392578 30.066406 z M 38.394531 32.267578 C 40.476559 33.035156 43.145558 33.881812 45.927734 34.441406 C 45.73493 37.067692 43.995793 39 42 39 C 39.889247 39 38 36.855634 38 34 C 38 33.363138 38.218887 32.824968 38.394531 32.267578 z M 25.644531 32.367188 C 25.798991 32.895484 26 33.401613 26 34 C 26 36.865859 24.112926 39 22 39 C 20.021548 39 18.297879 37.085839 18.082031 34.498047 C 20.842059 33.970966 23.515761 33.141849 25.644531 32.367188 z M 49.984375 41.986328 A 1.0001 1.0001 0 0 0 49 43 L 49 44 C 49 45.64497 50.35503 47 52 47 C 53.64497 47 55 45.64497 55 44 L 55 43 A 1.0001 1.0001 0 1 0 53 43 L 53 44 C 53 44.56503 52.56503 45 52 45 C 51.43497 45 51 44.56503 51 44 L 51 43 A 1.0001 1.0001 0 0 0 49.984375 41.986328 z M 24.984375 42.310547 A 1.0001 1.0001 0 0 0 24 43.324219 C 24 45.990827 26.183001 48.175781 28.849609 48.175781 C 30.090877 48.175781 31.140135 47.605084 32 46.832031 C 32.859651 47.604748 33.908734 48.175781 35.150391 48.175781 C 37.816999 48.175781 40 45.990827 40 43.324219 A 1.0001 1.0001 0 1 0 38 43.324219 C 38 44.90961 36.735782 46.175781 35.150391 46.175781 C 34.179956 46.175781 33.335967 45.694922 32.818359 44.958984 A 1.0001 1.0001 0 0 0 31.181641 44.958984 C 30.664152 45.695496 29.820555 46.175781 28.849609 46.175781 C 27.264218 46.175781 26 44.90961 26 43.324219 A 1.0001 1.0001 0 0 0 24.984375 42.310547 z M 22.84375 53.019531 C 22.455859 53.058484 22.110531 53.324703 21.988281 53.720703 C 21.825281 54.248703 22.120437 54.807703 22.648438 54.970703 C 22.688437 54.982703 22.728531 54.993 22.769531 55 C 25.791531 55.735 28.89 56.110141 32 56.119141 C 32.94 56.119141 33.880547 56.119531 34.810547 56.019531 C 35.362547 55.980531 35.779234 55.501219 35.740234 54.949219 C 35.701234 54.397219 35.221922 53.980531 34.669922 54.019531 L 34.669922 54 C 30.833922 54.268 26.980234 53.951547 23.240234 53.060547 C 23.108234 53.019797 22.973047 53.006547 22.84375 53.019531 z M 40.769531 53.089844 C 39.929531 53.289844 39.080234 53.469375 38.240234 53.609375 C 37.688234 53.653375 37.276312 54.137453 37.320312 54.689453 C 37.364312 55.241453 37.848391 55.653375 38.400391 55.609375 L 38.570312 55.609375 C 39.460313 55.459375 40.350234 55.280312 41.240234 55.070312 C 41.778234 54.940312 42.110469 54.397375 41.980469 53.859375 C 41.850469 53.321375 41.307531 52.989141 40.769531 53.119141 L 40.769531 53.089844 z"/></svg>